<svg width="24" height="25" viewBox="0 0 24 25" fill="none" xmlns="http://www.w3.org/2000/svg">
<path d="M1.4541 5.36914H5.09047" stroke="#DA0175" stroke-width="1.5" stroke-linecap="round" stroke-linejoin="round"/>
<path d="M1.4541 19.9785H5.09047" stroke="#DA0175" stroke-width="1.5" stroke-linecap="round" stroke-linejoin="round"/>
<path d="M13.0908 5.36914H22.5454" stroke="#DA0175" stroke-width="1.5" stroke-linecap="round" stroke-linejoin="round"/>
<path d="M13.0908 19.9785H22.5454" stroke="#DA0175" stroke-width="1.5" stroke-linecap="round" stroke-linejoin="round"/>
<path d="M1.4541 12.6738H12.3632" stroke="#DA0175" stroke-width="1.5" stroke-linecap="round" stroke-linejoin="round"/>
<path d="M20.3633 12.6738H22.5451" stroke="#DA0175" stroke-width="1.5" stroke-linecap="round" stroke-linejoin="round"/>
<path d="M9.09109 8.50013C10.8986 8.50013 12.3638 7.09858 12.3638 5.36969C12.3638 3.6408 10.8986 2.23926 9.09109 2.23926C7.28361 2.23926 5.81836 3.6408 5.81836 5.36969C5.81836 7.09858 7.28361 8.50013 9.09109 8.50013Z" stroke="#DA0175" stroke-width="1.5" stroke-linecap="round" stroke-linejoin="round"/>
<path d="M9.09109 23.1085C10.8986 23.1085 12.3638 21.707 12.3638 19.9781C12.3638 18.2492 10.8986 16.8477 9.09109 16.8477C7.28361 16.8477 5.81836 18.2492 5.81836 19.9781C5.81836 21.707 7.28361 23.1085 9.09109 23.1085Z" stroke="#DA0175" stroke-width="1.5" stroke-linecap="round" stroke-linejoin="round"/>
<path d="M16.3635 15.8038C18.171 15.8038 19.6363 14.4023 19.6363 12.6734C19.6363 10.9445 18.171 9.54297 16.3635 9.54297C14.5561 9.54297 13.0908 10.9445 13.0908 12.6734C13.0908 14.4023 14.5561 15.8038 16.3635 15.8038Z" stroke="#DA0175" stroke-width="1.5" stroke-linecap="round" stroke-linejoin="round"/>
</svg>
