<svg xmlns="http://www.w3.org/2000/svg" width="32" height="29" viewBox="0 0 32 29" fill="none">
  <path fill-rule="evenodd" clip-rule="evenodd" d="M7.05654 7.09351C7.57724 6.63745 8.42146 6.63745 8.94216 7.09351L15.9993 13.2746L23.0565 7.09351C23.5772 6.63745 24.4215 6.63745 24.9422 7.09351C25.4629 7.54957 25.4629 8.28899 24.9422 8.74505L17.885 14.9262L24.9422 21.1073C25.4629 21.5634 25.4629 22.3028 24.9422 22.7588C24.4215 23.2149 23.5772 23.2149 23.0565 22.7588L15.9993 16.5777L8.94216 22.7588C8.42146 23.2149 7.57724 23.2149 7.05654 22.7588C6.53584 22.3028 6.53584 21.5634 7.05654 21.1073L14.1137 14.9262L7.05654 8.74505C6.53584 8.28899 6.53584 7.54957 7.05654 7.09351Z" fill="#3F3F55"/>
</svg>