<svg width="33" height="33" viewBox="0 0 33 33" fill="none" xmlns="http://www.w3.org/2000/svg">
<path d="M8.20852 26.1665H18.124C18.8767 26.1665 19.469 25.5421 19.319 24.8045C18.905 22.7681 17.5526 19.1665 13.1663 19.1665C8.78003 19.1665 7.42768 22.7681 7.0136 24.8045C6.86362 25.5421 7.45586 26.1665 8.20852 26.1665Z" stroke="#3F3F55" stroke-width="1.5" stroke-linecap="round" stroke-linejoin="round"/>
<path d="M21.5 19.1665C24.2717 19.1665 25.4069 22.0304 25.8652 24.0945C26.1127 25.2092 25.2111 26.1665 24.0692 26.1665H22.8333" stroke="#3F3F55" stroke-width="1.5" stroke-linecap="round" stroke-linejoin="round"/>
<path d="M13.1667 14.1668C15.1917 14.1668 16.8333 12.5252 16.8333 10.5002C16.8333 8.47512 15.1917 6.8335 13.1667 6.8335C11.1416 6.8335 9.5 8.47512 9.5 10.5002C9.5 12.5252 11.1416 14.1668 13.1667 14.1668Z" stroke="#3F3F55" stroke-width="1.5" stroke-linecap="round" stroke-linejoin="round"/>
<path d="M20.166 14.1668C22.1911 14.1668 23.4993 12.5252 23.4993 10.5002C23.4993 8.47512 22.1911 6.8335 20.166 6.8335" stroke="#3F3F55" stroke-width="1.5" stroke-linecap="round" stroke-linejoin="round"/>
</svg>
