<svg width="35" height="39" viewBox="0 0 35 39" fill="none" xmlns="http://www.w3.org/2000/svg">
<path d="M16.75 20.7988H13.25C12.1454 20.7988 11.25 19.9034 11.25 18.7988V8.29883C11.25 7.19426 12.1454 6.29883 13.25 6.29883H19.5L23.75 10.5488V12.7988" stroke="#DA0175" stroke-width="1.5" stroke-linecap="round" stroke-linejoin="round"/>
<path d="M22.5 16.2988V20.7988" stroke="#DA0175" stroke-width="1.5" stroke-linecap="round" stroke-linejoin="round"/>
<path d="M24.75 18.5488H20.25" stroke="#DA0175" stroke-width="1.5" stroke-linecap="round" stroke-linejoin="round"/>
<path d="M23.5 10.7988H19.25V6.54883" stroke="#DA0175" stroke-width="1.5" stroke-linecap="round" stroke-linejoin="round"/>
<path d="M3.112 33.6128C2.57333 33.6128 2.104 33.4982 1.704 33.2688C1.304 33.0342 0.997333 32.7008 0.784 32.2688C0.570667 31.8315 0.464 31.3168 0.464 30.7248C0.464 30.1382 0.570667 29.6288 0.784 29.1968C0.997333 28.7595 1.304 28.4262 1.704 28.1968C2.104 27.9622 2.57333 27.8448 3.112 27.8448C3.464 27.8448 3.79733 27.9008 4.112 28.0128C4.42667 28.1195 4.70133 28.2768 4.936 28.4848C5.03733 28.5648 5.088 28.6715 5.088 28.8048C5.088 28.9008 5.06133 28.9835 5.008 29.0528C4.95467 29.1168 4.89067 29.1488 4.816 29.1488C4.72533 29.1488 4.63733 29.1142 4.552 29.0448C4.296 28.8528 4.06133 28.7195 3.848 28.6448C3.64 28.5648 3.40267 28.5248 3.136 28.5248C2.54933 28.5248 2.09867 28.7142 1.784 29.0928C1.46933 29.4715 1.312 30.0155 1.312 30.7248C1.312 31.4395 1.46933 31.9862 1.784 32.3648C2.09867 32.7435 2.54933 32.9328 3.136 32.9328C3.392 32.9328 3.624 32.8928 3.832 32.8128C4.04533 32.7328 4.28533 32.5995 4.552 32.4128C4.65867 32.3435 4.74667 32.3088 4.816 32.3088C4.89067 32.3088 4.95467 32.3435 5.008 32.4128C5.06133 32.4768 5.088 32.5568 5.088 32.6528C5.088 32.7862 5.03733 32.8928 4.936 32.9728C4.70133 33.1808 4.42667 33.3408 4.112 33.4528C3.79733 33.5595 3.464 33.6128 3.112 33.6128ZM7.59194 33.6048C7.20794 33.6048 6.86927 33.5222 6.57594 33.3568C6.28794 33.1915 6.06394 32.9568 5.90394 32.6528C5.74927 32.3435 5.67194 31.9862 5.67194 31.5808C5.67194 31.1702 5.74927 30.8128 5.90394 30.5088C6.06394 30.1995 6.28794 29.9622 6.57594 29.7968C6.86927 29.6315 7.20794 29.5488 7.59194 29.5488C7.97594 29.5488 8.31194 29.6315 8.59994 29.7968C8.89327 29.9622 9.11727 30.1995 9.27194 30.5088C9.43194 30.8128 9.51194 31.1702 9.51194 31.5808C9.51194 31.9862 9.43194 32.3435 9.27194 32.6528C9.11727 32.9568 8.89327 33.1915 8.59994 33.3568C8.31194 33.5222 7.97594 33.6048 7.59194 33.6048ZM7.59194 32.9648C7.94927 32.9648 8.22127 32.8475 8.40794 32.6128C8.59994 32.3782 8.69594 32.0342 8.69594 31.5808C8.69594 31.1328 8.59994 30.7915 8.40794 30.5568C8.21594 30.3168 7.94394 30.1968 7.59194 30.1968C7.23994 30.1968 6.96794 30.3168 6.77594 30.5568C6.58394 30.7915 6.48794 31.1328 6.48794 31.5808C6.48794 32.0342 6.58127 32.3782 6.76794 32.6128C6.95994 32.8475 7.2346 32.9648 7.59194 32.9648ZM12.5076 29.5488C12.8489 29.5488 13.1502 29.6315 13.4116 29.7968C13.6729 29.9622 13.8756 30.1968 14.0196 30.5008C14.1689 30.8048 14.2436 31.1595 14.2436 31.5648C14.2436 31.9648 14.1689 32.3195 14.0196 32.6288C13.8756 32.9382 13.6702 33.1782 13.4036 33.3488C13.1422 33.5195 12.8436 33.6048 12.5076 33.6048C12.2142 33.6048 11.9556 33.5435 11.7316 33.4208C11.5076 33.2928 11.3369 33.1115 11.2196 32.8768V33.1968C11.2196 33.3142 11.1822 33.4102 11.1076 33.4848C11.0382 33.5542 10.9422 33.5888 10.8196 33.5888C10.6969 33.5888 10.5982 33.5542 10.5236 33.4848C10.4489 33.4102 10.4116 33.3142 10.4116 33.1968V28.2528C10.4116 28.1355 10.4489 28.0422 10.5236 27.9728C10.6036 27.9035 10.7049 27.8688 10.8276 27.8688C10.9449 27.8688 11.0382 27.9035 11.1076 27.9728C11.1822 28.0368 11.2196 28.1248 11.2196 28.2368V30.2848C11.3369 30.0502 11.5076 29.8688 11.7316 29.7408C11.9556 29.6128 12.2142 29.5488 12.5076 29.5488ZM12.3156 32.9648C12.6622 32.9648 12.9316 32.8422 13.1236 32.5968C13.3209 32.3515 13.4196 32.0075 13.4196 31.5648C13.4196 31.1275 13.3236 30.7915 13.1316 30.5568C12.9396 30.3168 12.6676 30.1968 12.3156 30.1968C11.9636 30.1968 11.6916 30.3168 11.4996 30.5568C11.3129 30.7968 11.2196 31.1382 11.2196 31.5808C11.2196 32.0235 11.3129 32.3648 11.4996 32.6048C11.6916 32.8448 11.9636 32.9648 12.3156 32.9648ZM17.1861 29.5648C17.4421 29.5488 17.5701 29.6582 17.5701 29.8928C17.5701 30.0102 17.5408 30.0982 17.4821 30.1568C17.4235 30.2155 17.3221 30.2502 17.1781 30.2608L16.9381 30.2848C16.6021 30.3168 16.3515 30.4342 16.1861 30.6368C16.0261 30.8395 15.9461 31.0848 15.9461 31.3728V33.2048C15.9461 33.3328 15.9088 33.4288 15.8341 33.4928C15.7595 33.5568 15.6635 33.5888 15.5461 33.5888C15.4288 33.5888 15.3301 33.5568 15.2501 33.4928C15.1755 33.4288 15.1381 33.3328 15.1381 33.2048V29.9488C15.1381 29.8262 15.1755 29.7328 15.2501 29.6688C15.3301 29.5995 15.4288 29.5648 15.5461 29.5648C15.6528 29.5648 15.7408 29.5995 15.8101 29.6688C15.8848 29.7328 15.9221 29.8235 15.9221 29.9408V30.3248C16.0288 30.0902 16.1835 29.9115 16.3861 29.7888C16.5888 29.6662 16.8181 29.5942 17.0741 29.5728L17.1861 29.5648ZM19.6844 29.5488C20.2017 29.5488 20.5857 29.6795 20.8364 29.9408C21.0924 30.2022 21.2204 30.5995 21.2204 31.1328V33.2048C21.2204 33.3275 21.1857 33.4235 21.1164 33.4928C21.047 33.5568 20.951 33.5888 20.8284 33.5888C20.711 33.5888 20.6177 33.5542 20.5484 33.4848C20.479 33.4155 20.4444 33.3222 20.4444 33.2048V32.9088C20.343 33.1328 20.191 33.3062 19.9884 33.4288C19.791 33.5462 19.559 33.6048 19.2924 33.6048C19.0364 33.6048 18.8017 33.5542 18.5884 33.4528C18.3804 33.3462 18.215 33.2022 18.0924 33.0208C17.9697 32.8395 17.9084 32.6342 17.9084 32.4048C17.903 32.1168 17.975 31.8928 18.1244 31.7328C18.2737 31.5675 18.5164 31.4502 18.8524 31.3808C19.1884 31.3062 19.655 31.2688 20.2524 31.2688H20.4364V31.0368C20.4364 30.7382 20.375 30.5222 20.2524 30.3888C20.1297 30.2555 19.9324 30.1888 19.6604 30.1888C19.4737 30.1888 19.2977 30.2128 19.1324 30.2608C18.967 30.3088 18.7857 30.3782 18.5884 30.4688C18.4444 30.5488 18.343 30.5888 18.2844 30.5888C18.2044 30.5888 18.1377 30.5595 18.0844 30.5008C18.0364 30.4422 18.0124 30.3675 18.0124 30.2768C18.0124 30.1968 18.0337 30.1275 18.0764 30.0688C18.1244 30.0048 18.199 29.9435 18.3004 29.8848C18.487 29.7835 18.7057 29.7035 18.9564 29.6448C19.207 29.5808 19.4497 29.5488 19.6844 29.5488ZM19.4364 33.0048C19.7297 33.0048 19.9697 32.9062 20.1564 32.7088C20.343 32.5062 20.4364 32.2475 20.4364 31.9328V31.7248H20.2924C19.8764 31.7248 19.5564 31.7435 19.3324 31.7808C19.1084 31.8182 18.9484 31.8822 18.8524 31.9728C18.7564 32.0582 18.7084 32.1835 18.7084 32.3488C18.7084 32.5408 18.7777 32.6982 18.9164 32.8208C19.055 32.9435 19.2284 33.0048 19.4364 33.0048ZM24.4296 29.5488C25.363 29.5488 25.8296 30.0742 25.8296 31.1248V33.2048C25.8296 33.3275 25.7923 33.4235 25.7176 33.4928C25.6483 33.5568 25.5496 33.5888 25.4216 33.5888C25.299 33.5888 25.2003 33.5542 25.1256 33.4848C25.0563 33.4155 25.0216 33.3222 25.0216 33.2048V31.1648C25.0216 30.8342 24.955 30.5915 24.8216 30.4368C24.6936 30.2822 24.491 30.2048 24.2136 30.2048C23.8883 30.2048 23.627 30.3062 23.4296 30.5088C23.2323 30.7115 23.1336 30.9835 23.1336 31.3248V33.2048C23.1336 33.3222 23.0963 33.4155 23.0216 33.4848C22.9523 33.5542 22.8563 33.5888 22.7336 33.5888C22.611 33.5888 22.5123 33.5542 22.4376 33.4848C22.363 33.4155 22.3256 33.3222 22.3256 33.2048V29.9488C22.3256 29.8368 22.363 29.7462 22.4376 29.6768C22.5176 29.6022 22.6163 29.5648 22.7336 29.5648C22.851 29.5648 22.9443 29.5995 23.0136 29.6688C23.083 29.7382 23.1176 29.8288 23.1176 29.9408V30.2688C23.2456 30.0342 23.4243 29.8555 23.6536 29.7328C23.883 29.6102 24.1416 29.5488 24.4296 29.5488ZM29.823 32.5568C29.8977 32.5568 29.959 32.5888 30.007 32.6528C30.055 32.7115 30.079 32.7862 30.079 32.8768C30.079 32.9515 30.0577 33.0208 30.015 33.0848C29.9777 33.1435 29.911 33.2048 29.815 33.2688C29.6763 33.3595 29.5163 33.4342 29.335 33.4928C29.1537 33.5515 28.9697 33.5862 28.783 33.5968L28.743 33.9008C28.8177 33.8848 28.8843 33.8768 28.943 33.8768C29.1083 33.8768 29.247 33.9248 29.359 34.0208C29.4763 34.1168 29.535 34.2528 29.535 34.4288C29.535 34.6262 29.4497 34.7862 29.279 34.9088C29.1083 35.0368 28.8657 35.1008 28.551 35.1008C28.343 35.1008 28.159 35.0715 27.999 35.0128C27.903 34.9755 27.855 34.9088 27.855 34.8128C27.855 34.7488 27.8763 34.6955 27.919 34.6528C27.967 34.6102 28.0283 34.5995 28.103 34.6208C28.263 34.6635 28.4123 34.6848 28.551 34.6848C28.6897 34.6848 28.7963 34.6635 28.871 34.6208C28.9457 34.5782 28.983 34.5142 28.983 34.4288C28.983 34.3648 28.9617 34.3142 28.919 34.2768C28.8817 34.2448 28.8257 34.2288 28.751 34.2288C28.6977 34.2288 28.6257 34.2395 28.535 34.2608C28.4443 34.2822 28.3883 34.2928 28.367 34.2928C28.3243 34.2928 28.2843 34.2768 28.247 34.2448C28.215 34.2182 28.2017 34.1808 28.207 34.1328L28.271 33.5808C27.791 33.5062 27.4097 33.2928 27.127 32.9408C26.8497 32.5888 26.711 32.1408 26.711 31.5968C26.711 31.1915 26.791 30.8342 26.951 30.5248C27.1163 30.2155 27.3457 29.9755 27.639 29.8048C27.9323 29.6342 28.2683 29.5488 28.647 29.5488C28.8497 29.5488 29.0523 29.5782 29.255 29.6368C29.463 29.6955 29.647 29.7755 29.807 29.8768C29.9777 29.9942 30.063 30.1302 30.063 30.2848C30.063 30.3755 30.039 30.4528 29.991 30.5168C29.943 30.5755 29.8817 30.6048 29.807 30.6048C29.759 30.6048 29.711 30.5942 29.663 30.5728C29.615 30.5462 29.5537 30.5088 29.479 30.4608C29.3457 30.3755 29.2203 30.3115 29.103 30.2688C28.991 30.2208 28.855 30.1968 28.695 30.1968C28.3323 30.1968 28.0497 30.3195 27.847 30.5648C27.6497 30.8102 27.551 31.1515 27.551 31.5888C27.551 32.0262 27.6497 32.3648 27.847 32.6048C28.0443 32.8395 28.3243 32.9568 28.687 32.9568C28.847 32.9568 28.9883 32.9328 29.111 32.8848C29.2337 32.8368 29.359 32.7728 29.487 32.6928C29.5457 32.6555 29.6043 32.6235 29.663 32.5968C29.7217 32.5702 29.775 32.5568 29.823 32.5568ZM32.4422 29.5488C32.9595 29.5488 33.3435 29.6795 33.5942 29.9408C33.8502 30.2022 33.9782 30.5995 33.9782 31.1328V33.2048C33.9782 33.3275 33.9435 33.4235 33.8742 33.4928C33.8049 33.5568 33.7089 33.5888 33.5862 33.5888C33.4689 33.5888 33.3755 33.5542 33.3062 33.4848C33.2369 33.4155 33.2022 33.3222 33.2022 33.2048V32.9088C33.1009 33.1328 32.9489 33.3062 32.7462 33.4288C32.5489 33.5462 32.3169 33.6048 32.0502 33.6048C31.7942 33.6048 31.5595 33.5542 31.3462 33.4528C31.1382 33.3462 30.9729 33.2022 30.8502 33.0208C30.7275 32.8395 30.6662 32.6342 30.6662 32.4048C30.6609 32.1168 30.7329 31.8928 30.8822 31.7328C31.0315 31.5675 31.2742 31.4502 31.6102 31.3808C31.9462 31.3062 32.4129 31.2688 33.0102 31.2688H33.1942V31.0368C33.1942 30.7382 33.1329 30.5222 33.0102 30.3888C32.8875 30.2555 32.6902 30.1888 32.4182 30.1888C32.2315 30.1888 32.0555 30.2128 31.8902 30.2608C31.7249 30.3088 31.5435 30.3782 31.3462 30.4688C31.2022 30.5488 31.1009 30.5888 31.0422 30.5888C30.9622 30.5888 30.8955 30.5595 30.8422 30.5008C30.7942 30.4422 30.7702 30.3675 30.7702 30.2768C30.7702 30.1968 30.7915 30.1275 30.8342 30.0688C30.8822 30.0048 30.9569 29.9435 31.0582 29.8848C31.2449 29.7835 31.4635 29.7035 31.7142 29.6448C31.9649 29.5808 32.2075 29.5488 32.4422 29.5488ZM32.1942 33.0048C32.4875 33.0048 32.7275 32.9062 32.9142 32.7088C33.1009 32.5062 33.1942 32.2475 33.1942 31.9328V31.7248H33.0502C32.6342 31.7248 32.3142 31.7435 32.0902 31.7808C31.8662 31.8182 31.7062 31.8822 31.6102 31.9728C31.5142 32.0582 31.4662 32.1835 31.4662 32.3488C31.4662 32.5408 31.5355 32.6982 31.6742 32.8208C31.8129 32.9435 31.9862 33.0048 32.1942 33.0048Z" fill="#DA0175"/>
</svg>
